<svg width="813" height="482" viewBox="0 0 813 482" fill="none" xmlns="http://www.w3.org/2000/svg">
<path d="M484.429 481.5C496.579 481.5 506.429 471.65 506.429 459.5C506.429 447.35 496.579 437.5 484.429 437.5C472.278 437.5 462.429 447.35 462.429 459.5C462.429 471.65 472.278 481.5 484.429 481.5Z" fill="#CCE5FF"/>
<path d="M386.929 189.14C207.729 189.14 113.262 285.807 88.429 334.14C83.5957 343.973 78.629 363.64 97.429 363.64C116.229 363.64 122.202 355.5 134.5 344.14C156.333 323.973 218.029 282.54 296.429 278.14C394.429 272.64 434 369.5 443 382C449.571 388.36 461.429 405.14 486.929 399.64C507.329 395.24 506.499 373.5 501.429 363.64C497.5 356 486.529 342.14 486.929 334.14C487.429 324.14 501.929 308.64 516.929 313.64C528.929 317.64 545.5 334.5 549.429 344.14C554.262 357.64 573.529 383.14 611.929 377.14C650.329 371.14 645 339 640 324C625.167 279.5 566.129 189.14 386.929 189.14Z" fill="#CCE5FF"/>
<path d="M46.0575 90.016H45.1375V150H0.977539V12H45.1375V68.304H46.0575C46.1802 66.096 46.4255 64.1333 46.7935 62.416C47.1615 60.576 47.6522 58.9813 48.2655 57.632L69.7935 12H117.634L84.5135 79.712L118.738 150H70.8975L48.2655 100.504C47.6522 99.1546 47.1615 97.6213 46.7935 95.904C46.4255 94.1866 46.1802 92.224 46.0575 90.016Z" fill="#0A1F44"/>
<path d="M168.77 138.592H145.586L120.93 39.6H165.09L177.234 111.36H179.442L191.586 39.6H235.746L208.146 150C206.183 157.237 203.914 163.187 201.338 167.848C198.884 172.509 196.002 176.189 192.69 178.888C189.378 181.709 185.514 183.672 181.098 184.776C176.804 185.88 171.775 186.432 166.01 186.432H123.138V157.728L143.93 153.68C154.602 151.227 161.532 148.589 164.722 145.768C165.58 145.032 166.378 144.173 167.114 143.192C167.85 142.211 168.524 141.107 169.138 139.88L168.77 138.592Z" fill="#0A1F44"/>
<path d="M257.462 44.016C266.907 38.864 279.849 36.288 296.286 36.288C312.846 36.288 327.995 38.5573 341.734 43.096L336.582 73.088C330.817 71.3706 325.113 70.144 319.47 69.408C313.827 68.672 308.062 68.304 302.174 68.304C300.457 68.304 298.31 68.3653 295.734 68.488C293.281 68.6106 290.459 68.856 287.27 69.224V76.216C294.017 76.216 300.947 76.584 308.062 77.32C315.177 77.9333 321.617 79.528 327.382 82.104C333.27 84.5573 338.054 88.2986 341.734 93.328C345.537 98.2346 347.438 104.981 347.438 113.568C347.438 119.579 346.763 124.976 345.414 129.76C344.065 134.421 341.979 138.163 339.158 140.984C336.214 143.805 333.147 146.075 329.958 147.792C326.891 149.509 322.843 150.736 317.814 151.472C313.889 152.085 309.657 152.515 305.118 152.76C300.702 153.128 295.918 153.312 290.766 153.312C272.734 153.312 256.235 151.165 241.27 146.872L246.79 115.592C253.046 117.432 259.486 118.843 266.11 119.824C272.734 120.805 279.665 121.296 286.902 121.296C290.214 121.296 293.342 121.235 296.286 121.112C299.353 120.989 302.297 120.744 305.118 120.376V113.384C293.342 113.384 283.467 112.648 275.494 111.176C267.643 109.581 261.265 107.189 256.358 104C251.574 100.811 248.139 96.64 246.054 91.488C244.091 86.336 243.11 80.2026 243.11 73.088C243.11 58.8586 247.894 49.168 257.462 44.016Z" fill="#0A1F44"/>
<path d="M367.284 68.12H356.244V39.6H367.284V21.936L411.444 10.896V39.6H426.716V68.12H411.444V118.352C413.284 118.72 415.308 119.088 417.516 119.456C419.724 119.701 422.055 119.885 424.508 120.008L422.484 152.392C402.367 152.392 389.241 151.288 383.108 149.08C377.956 147.24 374.031 144.909 371.332 142.088C368.633 139.144 367.284 134.851 367.284 129.208V68.12Z" fill="#0A1F44"/>
<path d="M443.188 6.47997L487.348 3.16797V118.352C489.679 118.843 491.764 119.211 493.604 119.456C495.444 119.701 496.978 119.885 498.204 120.008L496.18 152.392C477.412 152.392 464.962 151.288 458.828 149.08C453.676 147.24 449.751 144.848 447.052 141.904C444.476 138.96 443.188 134.728 443.188 129.208V6.47997Z" fill="#0A1F44"/>
<path d="M554.526 112.464V120.192C556.734 120.437 558.942 120.621 561.15 120.744C563.358 120.867 565.566 120.928 567.774 120.928C581.512 120.928 595.374 118.72 609.358 114.304L614.51 146.688C597.95 151.104 581.635 153.312 565.566 153.312C544.958 153.312 530.054 148.528 520.854 138.96C511.654 129.269 507.054 114.549 507.054 94.8C507.054 75.0506 511.654 60.392 520.854 50.824C530.176 41.1333 545.08 36.288 565.566 36.288C575.87 36.288 584.456 36.9626 591.326 38.312C598.195 39.5386 603.715 41.6853 607.886 44.752C612.179 47.696 615.184 51.744 616.902 56.896C618.742 61.9253 619.662 68.304 619.662 76.032C619.662 82.4106 618.558 87.9306 616.35 92.592C614.264 97.1306 610.707 100.872 605.678 103.816C600.648 106.76 593.963 108.968 585.622 110.44C577.28 111.789 566.915 112.464 554.526 112.464ZM554.526 77.872V86.888H563.542C568.939 86.888 572.803 86.336 575.134 85.232C577.587 84.128 578.814 81.552 578.814 77.504V68.488H569.798C564.4 68.488 560.475 69.04 558.022 70.144C555.691 71.248 554.526 73.824 554.526 77.872Z" fill="#0A1F44"/>
<path d="M680.333 150H636.173V45.12L680.333 39.6V150ZM633.781 18.808C633.781 15.496 634.149 12.736 634.885 10.528C635.621 8.1973 636.909 6.3573 638.749 5.00796C640.589 3.53597 643.104 2.4933 646.293 1.87996C649.482 1.26663 653.53 0.959961 658.437 0.959961C663.343 0.959961 667.33 1.26663 670.397 1.87996C673.586 2.4933 676.101 3.53597 677.941 5.00796C679.781 6.3573 681.069 8.1973 681.805 10.528C682.541 12.736 682.909 15.496 682.909 18.808C682.909 22.12 682.541 24.88 681.805 27.088C681.069 29.296 679.781 31.136 677.941 32.608C676.101 33.9573 673.586 34.9386 670.397 35.552C667.33 36.0426 663.343 36.288 658.437 36.288C654.879 36.288 651.568 36.1653 648.501 35.92C645.557 35.6746 642.981 35 640.773 33.896C638.565 32.6693 636.848 30.8906 635.621 28.56C634.394 26.2293 633.781 22.9786 633.781 18.808Z" fill="#0A1F44"/>
<path d="M812.878 150L786.198 92.224L811.774 39.6H764.118L748.11 76.032H746.638V3.16797L702.478 6.47997V150H746.638V106.208H748.11L765.222 150H812.878Z" fill="#0A1F44"/>
</svg>
